<?xml version='1.0' encoding='iso-8859-1'?>
<!DOCTYPE svg PUBLIC '-//W3C//DTD SVG 1.1//EN' 'http://www.w3.org/Graphics/SVG/1.1/DTD/svg11.dtd'>
<svg version="1.1" xmlns="http://www.w3.org/2000/svg" viewBox="0 0 451.979 451.979" xmlns:xlink="http://www.w3.org/1999/xlink" enable-background="new 0 0 451.979 451.979">
  <g>
    <path d="m322.735,165.646h-193.491c-14.851,0-26.933,12.083-26.933,26.934v49.649c0,5.523 4.477,10 10,10h2.106v94.991c0,20.759 16.889,37.648 37.649,37.648h147.847c20.76,0 37.649-16.889 37.649-37.648v-94.991h2.106c5.523,0 10-4.477 10-10v-49.649c0-14.851-12.082-26.934-26.933-26.934zm-200.424,26.934c0-3.823 3.11-6.934 6.933-6.934h193.491c3.823,0 6.933,3.11 6.933,6.934v39.649h-207.357v-39.649zm95.003,59.649h17.351v61.199h-17.351v-61.199zm100.248,94.991c0,9.731-7.917,17.648-17.649,17.648h-147.847c-9.731,0-17.649-7.917-17.649-17.648v-94.991h62.897v71.199c0,5.523 4.477,10 10,10h37.351c5.523,0 10-4.477 10-10v-71.199h62.897v94.991z"/>
    <path d="m415.825,237.101h-23.934v-120.489c0-37.625-28.085-68.794-64.388-73.697v-32.915c0-5.523-4.477-10-10-10h-43.877c-5.523,0-10,4.477-10,10v32.224h-75.273v-32.224c0-5.523-4.477-10-10-10h-43.877c-5.523,0-10,4.477-10,10v32.915c-36.303,4.902-64.388,36.072-64.388,73.697v120.489h-23.935c-11.279,0-20.455,9.176-20.455,20.455v88.067c0,26.573 19.161,48.742 44.389,53.451v16.456c0,20.098 16.351,36.449 36.449,36.449h258.906c20.098,0 36.449-16.351 36.449-36.449v-16.456c25.228-4.709 44.389-26.878 44.389-53.451v-88.067c-5.68434e-14-11.279-9.176-20.455-20.455-20.455zm0,20c0.25,0 0.455,0.204 0.455,0.455v21.769h-24.389v-22.224h23.934zm-132.199-237.101h23.877v22.224h-23.877v-22.224zm-139.151,0h23.877v22.224h-23.877v-22.224zm-108.322,237.101h23.934v22.224h-24.389v-21.769c0-0.251 0.205-0.455 0.455-0.455zm-.455,88.522v-46.298h24.389v79.204c-14.1-4.294-24.389-17.421-24.389-32.906zm336.193,69.907c0,9.07-7.379,16.449-16.449,16.449h-258.906c-9.07,0-16.449-7.379-16.449-16.449v-25.519-273.399c0-29.99 24.398-54.388 54.388-54.388h183.028c29.99,0 54.388,24.398 54.388,54.388v273.399 25.519zm20-37.001v-79.204h24.389v46.298c-5.68434e-14,15.485-10.289,28.612-24.389,32.906z"/>
    <path d="m205.138,136.41c1.953,1.953 4.512,2.929 7.071,2.929s5.119-0.976 7.071-2.929l6.709-6.708 6.709,6.708c1.953,1.953 4.512,2.929 7.071,2.929s5.119-0.976 7.071-2.929c3.905-3.905 3.905-10.237 0-14.143l-6.709-6.708 6.709-6.709c3.905-3.905 3.905-10.237 0-14.143-3.905-3.905-10.237-3.905-14.143,0l-6.709,6.709-6.709-6.709c-3.905-3.905-10.237-3.905-14.143,0-3.905,3.905-3.905,10.237 0,14.143l6.709,6.709-6.709,6.708c-3.903,3.906-3.903,10.238 0.002,14.143z"/>
  </g>
</svg>
